<svg width="45" height="40" viewBox="0 0 45 40" fill="none" xmlns="http://www.w3.org/2000/svg">
<rect y="4.28572" width="45" height="35.7143" rx="6" fill="white"/>
<path d="M5.14285 4.28571L9 4.28571L9 6.64286C9 7.70798 8.13654 8.57143 7.07142 8.57143V8.57143C6.0063 8.57143 5.14285 7.70798 5.14285 6.64286L5.14285 4.28571Z" fill="#2D2727"/>
<path d="M9 4.28571L5.14286 4.28571L5.14286 1.92857C5.14286 0.863449 6.00631 -1.41497e-06 7.07143 -1.4205e-06C8.13655 -1.42603e-06 9 0.863449 9 1.92857L9 4.28571Z" fill="white"/>
<path d="M39.2143 4.28571L35.3572 4.28571L35.3572 1.92857C35.3572 0.863449 36.2206 -1.41497e-06 37.2857 -1.4205e-06C38.3508 -1.42603e-06 39.2143 0.863449 39.2143 1.92857L39.2143 4.28571Z" fill="white"/>
<path d="M35.3571 4.28571L39.2143 4.28571L39.2143 6.64286C39.2143 7.70798 38.3508 8.57143 37.2857 8.57143V8.57143C36.2206 8.57143 35.3571 7.70798 35.3571 6.64286L35.3571 4.28571Z" fill="#2D2727"/>
<rect x="5.14285" y="20" width="7.71429" height="4.28571" rx="2.14286" fill="#2D2727"/>
<rect x="5.14285" y="27.8571" width="7.71429" height="4.28571" rx="2.14286" fill="#2D2727"/>
<rect x="18.6429" y="12.1429" width="7.07143" height="4.28571" rx="2.14286" fill="#2D2727"/>
<rect x="18.6429" y="20" width="7.07143" height="4.28571" rx="2.14286" fill="#2D2727"/>
<rect x="18.6429" y="27.8571" width="7.07143" height="4.28571" rx="2.14286" fill="#2D2727"/>
<rect x="31.5" y="12.1429" width="7.71429" height="4.28571" rx="2.14286" fill="#2D2727"/>
<rect x="31.5" y="20" width="7.71429" height="4.28571" rx="2.14286" fill="#2D2727"/>
</svg>
